<svg width="161" height="48" viewBox="0 0 161 48" fill="none" xmlns="http://www.w3.org/2000/svg">
<path d="M10.3488 14.8499L9.01099 19.774L16.6685 14.8219L11.6603 33.5074L16.7466 33.5117L24.1451 5.91235" fill="#A09DA2"/>
<path d="M2.10656 25.6564L0 33.5118H10.4249L14.6907 17.5317L2.10656 25.6564ZM38.319 18.7404C38.0642 19.6875 37.5732 20.3832 36.841 20.8275C36.1105 21.2708 35.0853 21.4934 33.7619 21.4934H29.5572L31.0335 15.9892H35.2382C36.5598 15.9892 37.4679 16.21 37.9605 16.6602C38.4532 17.1104 38.5721 17.7984 38.319 18.7498V18.7404ZM42.6723 18.6309C43.2074 16.6432 42.9865 15.1143 42.008 14.044C41.0312 12.9822 39.3171 12.4471 36.8707 12.4471H27.4872L21.8386 33.5212H26.3974L28.6738 25.027H31.6638C32.3348 25.027 32.8632 25.1374 33.2488 25.3498C33.6353 25.5706 33.8621 25.9528 33.9317 26.505L34.7455 33.5212H39.6296L38.838 26.9806C38.6766 25.5196 38.0081 24.6617 36.8334 24.4069C38.3309 23.9737 39.5855 23.2517 40.5963 22.2494C41.6 21.2544 42.3172 20.0073 42.6723 18.6393V18.6309ZM53.7538 25.9783C53.3715 27.4054 52.7855 28.4841 51.9929 29.2401C51.1996 29.9961 50.2516 30.3698 49.1457 30.3698C48.0194 30.3698 47.2557 30.0046 46.8523 29.2656C46.4479 28.5266 46.4343 27.4563 46.8098 26.0548C47.1852 24.6532 47.7841 23.5575 48.608 22.7675C49.4319 21.9776 50.3952 21.5826 51.5011 21.5826C52.6054 21.5826 53.3614 21.9648 53.7436 22.7234C54.1343 23.4853 54.1428 24.5751 53.7606 25.9936L53.7538 25.9783ZM55.7516 18.5204L55.1808 20.6525C54.9345 19.888 54.4563 19.2764 53.7495 18.8177C53.0411 18.3675 52.1645 18.1382 51.1189 18.1382C49.8363 18.1382 48.6046 18.4695 47.4239 19.132C46.2432 19.7946 45.2069 20.7289 44.3235 21.9351C43.4401 23.1413 42.7946 24.5088 42.3784 26.0463C41.9706 27.5922 41.8857 28.9428 42.132 30.115C42.3869 31.2957 42.922 32.1961 43.7459 32.8246C44.5784 33.4617 45.6401 33.776 46.9397 33.776C47.9724 33.7812 48.9935 33.5579 49.9297 33.1219C50.8553 32.7044 51.6786 32.0899 52.3421 31.3212L51.7475 33.5433H56.1559L60.1813 18.5281H55.7644L55.7516 18.5204ZM76.023 18.5204H63.2027L62.3066 21.8671H69.7662L59.9044 30.3868L59.0618 33.5297H72.2958L73.1919 30.1829H65.1989L75.2118 21.5359L76.023 18.5204ZM87.3075 25.9528C86.9109 27.4308 86.3222 28.5419 85.545 29.2656C84.7678 29.9961 83.8266 30.3613 82.7215 30.3613C80.4111 30.3613 79.6517 28.8918 80.44 25.9528C80.8307 24.4918 81.4219 23.3935 82.2119 22.6537C83.0018 21.9113 83.9591 21.541 85.0846 21.541C86.1889 21.541 86.9346 21.9088 87.3186 22.6495C87.7025 23.3884 87.6991 24.4901 87.3075 25.9511V25.9528ZM89.8881 19.0853C88.873 18.4533 87.5777 18.1373 85.9977 18.1373C84.3983 18.1373 82.9177 18.4516 81.5553 19.0802C80.1985 19.7048 79.006 20.6373 78.0727 21.8034C77.1128 22.9841 76.4222 24.3687 75.9984 25.9486C75.5822 27.5226 75.5312 28.9046 75.854 30.0878C76.1768 31.2685 76.8563 32.1774 77.8756 32.806C78.9034 33.4396 80.2115 33.7548 81.8169 33.7548C83.3968 33.7548 84.8663 33.4371 86.2169 32.8051C87.5675 32.1697 88.7227 31.2677 89.6825 30.0785C90.6423 28.8944 91.3304 27.5132 91.7551 25.9333C92.1798 24.3534 92.2308 22.9739 91.908 21.7881C91.5852 20.6075 90.9142 19.6986 89.9034 19.0658L89.8881 19.0853ZM105.626 22.5314L106.756 18.4457C106.374 18.2503 105.872 18.1484 105.244 18.1484C104.233 18.1484 103.265 18.3981 102.33 18.9044C101.527 19.3342 100.844 19.9407 100.266 20.7L100.852 18.5L99.5723 18.5051H96.4294L92.3777 33.5144H96.8482L98.9505 25.6683C99.2563 24.5275 99.8067 23.6297 100.601 22.9926C101.391 22.353 102.376 22.0328 103.565 22.0328C104.296 22.0328 104.975 22.2001 105.621 22.5339L105.626 22.5314ZM118.065 26.025C117.683 27.4266 117.105 28.4969 116.315 29.2358C115.525 29.9782 114.574 30.3486 113.47 30.3486C112.365 30.3486 111.609 29.9748 111.21 29.2274C110.802 28.4756 110.794 27.3926 111.176 25.969C111.558 24.5462 112.145 23.4547 112.951 22.6987C113.758 21.9368 114.71 21.5563 115.814 21.5563C116.901 21.5563 117.632 21.947 118.023 22.7369C118.413 23.5269 118.422 24.6227 118.046 26.0242L118.065 26.025ZM121.172 19.1099C120.344 18.4474 119.286 18.1161 118.004 18.1161C116.88 18.1161 115.809 18.3709 114.793 18.8857C113.778 19.3996 112.954 20.1003 112.321 20.9871L112.337 20.8852L113.087 18.4983H108.721L107.608 22.652L107.574 22.7964L102.987 39.9071H107.463L109.774 31.294C110.003 32.0602 110.47 32.6616 111.184 33.0965C111.897 33.5297 112.778 33.7446 113.826 33.7446C115.125 33.7446 116.365 33.4303 117.542 32.8017C118.722 32.1714 119.742 31.2643 120.608 30.0921C121.475 28.9199 122.118 27.5608 122.528 26.0233C122.944 24.4833 123.029 23.1098 122.791 21.9079C122.549 20.7043 122.013 19.7725 121.186 19.1133L121.172 19.1099ZM136.021 25.9639C135.639 27.3824 135.053 28.4697 134.263 29.2172C133.473 29.9697 132.521 30.3443 131.417 30.3443C130.287 30.3443 129.523 29.9791 129.124 29.2401C128.716 28.5011 128.707 27.4308 129.081 26.0293C129.455 24.6277 130.051 23.532 130.875 22.742C131.699 21.9521 132.663 21.558 133.769 21.558C134.873 21.558 135.621 21.9402 136.012 22.6962C136.402 23.4547 136.405 24.5445 136.024 25.9664L136.021 25.9639ZM138.017 18.5017L137.445 20.6338C137.199 19.8651 136.723 19.2535 136.018 18.799C135.305 18.3454 134.43 18.1195 133.385 18.1195C132.102 18.1195 130.864 18.4508 129.682 19.1133C128.501 19.7759 127.465 20.7051 126.581 21.9079C125.698 23.1107 125.052 24.4817 124.636 26.0191C124.224 27.5625 124.143 28.9156 124.39 30.0929C124.639 31.2651 125.175 32.1706 126.004 32.8026C126.831 33.4311 127.898 33.7488 129.197 33.7488C130.242 33.7488 131.24 33.5314 132.187 33.0948C133.111 32.6753 133.932 32.06 134.594 31.2914L133.999 33.5152H138.408L142.432 18.506H138.024L138.017 18.5017ZM160.94 18.5068L160.943 18.5026H158.233C158.147 18.5026 158.07 18.5068 157.991 18.5085H156.585L155.863 19.5109L155.685 19.7487L155.608 19.8676L149.896 27.825L148.715 18.5068H144.037L146.407 32.6667L141.174 39.9122H145.838L147.103 38.1174C147.139 38.0647 147.171 38.0205 147.214 37.9645L148.692 35.8664L148.734 35.807L155.354 26.4209L160.934 18.5213L160.943 18.5162H160.94V18.5068Z" fill="#A09DA2"/>
</svg>
