<svg width="77" height="48" viewBox="0 0 77 48" fill="none" xmlns="http://www.w3.org/2000/svg">
<path d="M-6.07494 32.4263L-4.60682 28.9949C-2.99936 30.1853 -0.902695 30.8154 1.19447 30.8154C2.73226 30.8154 3.71067 30.2204 3.71067 29.3101C3.67558 26.7889 -5.55065 28.7498 -5.62082 22.4112C-5.65591 19.1897 -2.78985 16.7036 1.26464 16.7036C3.67558 16.7036 6.08753 17.2991 7.79975 18.6649L6.42787 22.1696C4.85249 21.1566 2.90669 20.4503 1.05463 20.4503C-0.203472 20.4503 -1.04254 21.0453 -1.04254 21.8162C-1.00745 24.3023 8.28945 22.9364 8.39421 28.9949C8.39421 32.2865 5.59782 34.5977 1.6135 34.5977C-1.32173 34.5977 -4.01286 33.8975 -6.07544 32.4263H-6.07494ZM52.3831 27.7523C52.0125 28.4108 51.4735 28.9588 50.8212 29.3402C50.169 29.7216 49.427 29.9226 48.6715 29.9227C46.3167 29.9227 44.4079 28.0099 44.4079 25.6506C44.4079 23.2913 46.3167 21.3786 48.6715 21.3786C49.427 21.3787 50.169 21.5797 50.8212 21.9611C51.4735 22.3425 52.0125 22.8905 52.3831 23.549L56.4647 21.2834C54.9359 18.5511 52.0197 16.7036 48.6715 16.7036C43.7398 16.7036 39.742 20.709 39.742 25.6506C39.742 30.5918 43.7398 34.5977 48.6715 34.5977C52.0197 34.5977 54.9359 32.7501 56.4647 30.0179L52.3831 27.7523ZM11.0427 34.2473H16.1453V9.25574H11.0432L11.0427 34.2473ZM59.0415 9.25574V34.2473H64.1441V26.7599L70.1905 34.2473H76.7125L69.0236 25.3524L76.1532 17.0524H69.9108L64.1441 23.953V9.25574H59.0415ZM31.8655 17.0535V19.085C31.027 17.684 28.9649 16.7036 26.7981 16.7036C22.3245 16.7036 18.7948 20.6608 18.7948 25.6331C18.7948 30.6053 22.3245 34.5977 26.7981 34.5977C28.9649 34.5977 31.027 33.6173 31.8655 32.2163V34.2473H36.9681V17.0535H31.8655ZM31.8655 27.7869C31.1317 29.0124 29.5939 29.9222 27.8817 29.9222C25.5264 29.9222 23.6177 28.0099 23.6177 25.6506C23.6177 23.2913 25.5264 21.3786 27.8817 21.3786C29.5939 21.3786 31.1317 22.3239 31.8655 23.584V27.7869Z" fill="#A09DA2"/>
</svg>
