<svg width="18" height="18" viewBox="0 0 18 18" fill="none" xmlns="http://www.w3.org/2000/svg">
<path d="M9 18C13.9706 18 18 13.9706 18 9C18 4.02944 13.9706 0 9 0C4.02944 0 0 4.02944 0 9C0 13.9706 4.02944 18 9 18Z" fill="#0D0630" fill-opacity="0.5"/>
<path d="M7.63047 6.0397C7.63047 6.29985 7.63047 7.46001 7.63047 7.46001H6.58984V9.19673H7.63047V13.9569H9.76797V9.19321H11.2023C11.2023 9.19321 11.3359 8.36001 11.4027 7.44946C11.2164 7.44946 9.77852 7.44946 9.77852 7.44946C9.77852 7.44946 9.77852 6.44048 9.77852 6.26118C9.77852 6.0854 10.0105 5.84634 10.2426 5.84634C10.4711 5.84634 10.9563 5.84634 11.4062 5.84634C11.4062 5.61079 11.4062 4.79165 11.4062 4.03931C10.8051 4.03931 10.123 4.03931 9.82422 4.03931C7.57773 4.04282 7.63047 5.77954 7.63047 6.0397Z" fill="white"/>
</svg>
