<svg width="56" height="56" viewBox="0 0 56 56" fill="none" xmlns="http://www.w3.org/2000/svg">
<rect width="56" height="56" rx="28" fill="#7F7CAF" fill-opacity="0.5"/>
<path d="M29 38C28.1818 38 27.4002 37.6588 25.8369 36.9764C24.0123 36.18 22.6155 35.5703 21.6465 35H18M29 38C29.8182 38 30.5998 37.6588 32.1631 36.9764C36.0544 35.2779 38 34.4286 38 33V22.5M29 38V27M20 22.5V25.5" stroke="white" stroke-width="1.5" stroke-linecap="round" stroke-linejoin="round"/>
<path d="M25.3259 25.6914L22.4047 24.2778C20.8016 23.5021 20 23.1142 20 22.5C20 21.8858 20.8016 21.4979 22.4047 20.7222L25.3259 19.3086C27.1288 18.4362 28.0303 18 29 18C29.9697 18 30.8712 18.4362 32.6741 19.3086L35.5953 20.7222C37.1984 21.4979 38 21.8858 38 22.5C38 23.1142 37.1984 23.5021 35.5953 24.2778L32.6741 25.6914C30.8712 26.5638 29.9697 27 29 27C28.0303 27 27.1288 26.5638 25.3259 25.6914Z" stroke="white" stroke-width="1.5" stroke-linecap="round" stroke-linejoin="round"/>
<path d="M34.1366 20.0156L23.8672 24.9849" stroke="white" stroke-width="1.5" stroke-linecap="round" stroke-linejoin="round"/>
<path d="M18 29H21" stroke="white" stroke-width="1.5" stroke-linecap="round" stroke-linejoin="round"/>
<path d="M18 32H21" stroke="white" stroke-width="1.5" stroke-linecap="round" stroke-linejoin="round"/>
</svg>
