<svg width="18" height="18" viewBox="0 0 18 18" fill="none" xmlns="http://www.w3.org/2000/svg">
<path d="M8.99705 10.8017C9.99 10.8017 10.7995 9.99366 10.7995 8.99998C10.7995 8.60773 10.6712 8.24557 10.4584 7.94975C10.1307 7.49587 9.59848 7.19824 8.99742 7.19824C8.39599 7.19824 7.86417 7.49551 7.53608 7.94939C7.32292 8.24521 7.19568 8.60737 7.19531 8.99962C7.19495 9.9933 8.00374 10.8017 8.99705 10.8017Z" fill="#0D0630" fill-opacity="0.5"/>
<path d="M12.935 6.79509V5.28482V5.06006L12.7088 5.06078L11.1992 5.0655L11.2054 6.80089L12.935 6.79509Z" fill="#0D0630" fill-opacity="0.5"/>
<path d="M9 0C4.03742 0 0 4.03742 0 9C0 13.9626 4.03742 18 9 18C13.9626 18 18 13.9626 18 9C18 4.03742 13.9626 0 9 0ZM14.1185 7.94977V12.1405C14.1185 13.2321 13.231 14.1192 12.1402 14.1192H5.85982C4.76863 14.1192 3.88154 13.2321 3.88154 12.1405V7.94977V5.86019C3.88154 4.76899 4.76863 3.8819 5.85982 3.8819H12.1398C13.231 3.8819 14.1185 4.76899 14.1185 5.86019V7.94977Z" fill="#0D0630" fill-opacity="0.5"/>
<path d="M11.7959 8.99994C11.7959 10.5432 10.5405 11.7997 8.99652 11.7997C7.45254 11.7997 6.19712 10.5432 6.19712 8.99994C6.19712 8.62871 6.27108 8.2738 6.40303 7.94971H4.875V12.1405C4.875 12.6821 5.31474 13.1207 5.85599 13.1207H12.136C12.6772 13.1207 13.117 12.6821 13.117 12.1405V7.94971H11.5886C11.7209 8.2738 11.7959 8.62871 11.7959 8.99994Z" fill="#0D0630" fill-opacity="0.5"/>
</svg>
