<svg width="18" height="18" viewBox="0 0 18 18" fill="none" xmlns="http://www.w3.org/2000/svg">
<path d="M10.637 7.72119C9.86698 7.72119 9.52222 8.14462 9.32972 8.44189V7.82415H7.87891C7.89776 8.23307 7.87891 12.1893 7.87891 12.1893H9.32972V9.75096C9.32972 9.62045 9.33879 9.48994 9.37721 9.39714C9.48235 9.13612 9.72089 8.86604 10.1218 8.86604C10.6468 8.86604 10.8567 9.26663 10.8567 9.85319V12.1889H12.3075L12.3079 9.68534C12.3079 8.34509 11.5919 7.72119 10.637 7.72119ZM9.32936 8.45711H9.31994C9.3232 8.45204 9.32682 8.44733 9.32936 8.44225V8.45711Z" fill="#0D0630" fill-opacity="0.5"/>
<path d="M7.07582 7.82471H5.625V12.1898H7.07582V7.82471Z" fill="#0D0630" fill-opacity="0.5"/>
<path d="M9 0C4.03742 0 0 4.03742 0 9C0 13.9626 4.03742 18 9 18C13.9626 18 18 13.9626 18 9C18 4.03742 13.9626 0 9 0ZM13.7726 13.0708C13.7726 13.4529 13.455 13.7632 13.0624 13.7632H4.8763C4.48477 13.7632 4.16684 13.4532 4.16684 13.0708V4.78929C4.16684 4.40683 4.48477 4.09687 4.8763 4.09687H13.0624C13.4547 4.09687 13.7726 4.40719 13.7726 4.78929V13.0708Z" fill="#0D0630" fill-opacity="0.5"/>
<path d="M6.36372 5.71924C5.86779 5.71924 5.54297 6.04478 5.54297 6.47329C5.54297 6.892 5.858 7.22733 6.34451 7.22733H6.35393C6.86002 7.22733 7.17505 6.892 7.17505 6.47329C7.16526 6.04515 6.86038 5.71924 6.36372 5.71924Z" fill="#0D0630" fill-opacity="0.5"/>
</svg>
