<svg width="147" height="34" viewBox="0 0 147 34" fill="none" xmlns="http://www.w3.org/2000/svg">
<g clip-path="url(#clip0_0_603)">
<path d="M131.649 26.8298H136.961C137.167 27.5063 137.867 28.1827 139.18 28.1827C140.959 28.1827 141.571 27.0672 141.571 25.4175V24.2426H141.453C140.576 25.2751 139.41 26.0347 137.691 26.0347C134.305 26.0347 131.361 23.5068 131.361 18.5638C131.361 14.0362 133.781 10.5055 137.432 10.5055C139.534 10.5055 140.817 11.36 141.665 12.713H141.754V10.9803H147.006V24.6817C147.006 27.2096 146.129 29.1796 144.815 30.3605C143.443 31.5948 141.489 32.0932 139.269 32.0932C135.094 32.0932 132.179 30.3546 131.649 26.8298ZM141.807 18.2968C141.807 16.3267 140.876 14.7364 139.269 14.7364C137.72 14.7364 136.731 16.1487 136.731 18.2968C136.731 20.4152 137.726 21.9402 139.269 21.9402C140.87 21.9462 141.807 20.3855 141.807 18.2968ZM125.496 13.6802H125.584C126.721 11.4728 128.211 10.6539 130.107 10.6539C130.542 10.6539 130.837 10.7132 131.013 10.8022V15.6562H130.896C127.657 15.0687 125.761 16.6294 125.761 20.1838V26.8001H120.244V10.9803H125.496V13.6802ZM0 4.625H10.799C12.8423 4.625 14.4144 5.12345 15.5273 6.03728C16.7815 7.06385 17.4528 8.59481 17.4528 10.4165C17.4528 12.5349 16.6048 13.8582 14.856 14.683V14.772C17.1348 15.5375 18.4479 17.5966 18.4479 20.0948C18.4479 22.4743 17.5411 24.3316 16.0572 25.4472C14.803 26.361 13.172 26.8001 11.011 26.8001H0V4.625ZM10.275 21.8868C11.5881 21.8868 12.5478 21.0917 12.5478 19.6201C12.5478 18.0891 11.4997 17.3533 10.2455 17.3533H5.98246V21.8809H10.275V21.8868ZM9.7156 13.3004C10.8815 13.3004 11.7294 12.6536 11.7294 11.36C11.7294 10.0961 10.852 9.47896 9.68616 9.47896H5.98246V13.3004H9.7156Z" fill="#A09DA2"/>
<path d="M19.4371 4.625H25.0957V26.8001H19.4371V4.625ZM26.1791 18.9139C26.1791 13.9176 29.3882 10.5352 34.352 10.5352C39.3158 10.5352 42.466 13.9176 42.466 18.9139C42.466 23.9459 39.3158 27.2927 34.352 27.2927C29.3882 27.2986 26.1791 23.9459 26.1791 18.9139ZM36.8604 18.9139C36.8604 16.1487 35.983 14.416 34.2931 14.416C32.6032 14.416 31.7847 16.1487 31.7847 18.9139C31.7847 21.7088 32.6032 23.4415 34.2931 23.4415C35.983 23.4475 36.8604 21.7088 36.8604 18.9139ZM43.1078 18.9139C43.1078 13.9176 46.3169 10.5352 51.2807 10.5352C56.2445 10.5352 59.3947 13.9176 59.3947 18.9139C59.3947 23.9459 56.2445 27.2927 51.2807 27.2927C46.3169 27.2986 43.1078 23.9459 43.1078 18.9139ZM53.7891 18.9139C53.7891 16.1487 52.9117 14.416 51.2218 14.416C49.5319 14.416 48.7134 16.1487 48.7134 18.9139C48.7134 21.7088 49.5319 23.4415 51.2218 23.4415C52.9117 23.4475 53.7891 21.7088 53.7891 18.9139ZM60.4722 10.9802H65.7245V13.3598H65.8129C66.861 11.5084 68.2918 10.5055 70.5411 10.5055C72.5255 10.5055 74.0152 11.5024 74.7748 13.2411H74.8631C76.1467 11.1523 77.8131 10.5055 79.7385 10.5055C83.3893 10.5055 84.9614 13.2114 84.9614 16.8549V26.7942H79.4441V17.8577C79.4441 16.2377 78.9495 15.1815 77.5481 15.1815C76.1762 15.1815 75.4755 16.4751 75.4755 18.1841V26.8001H69.9523V17.8577C69.9523 16.2377 69.4577 15.1815 68.0563 15.1815C66.6843 15.1815 65.9836 16.4751 65.9836 18.1841V26.8001H60.4722V10.9802ZM91.6976 24.7411H91.6387V26.8001H86.3864V4.625H91.9037V12.624H91.992C93.0401 11.2413 94.4415 10.5055 96.4553 10.5055C100.395 10.5055 102.673 14.0956 102.673 18.8546C102.673 24.2367 100.194 27.3223 96.1079 27.3223C94.412 27.3283 92.6632 26.5034 91.6976 24.7411ZM97.0676 18.8012C97.0676 16.2437 96.1373 14.594 94.4709 14.594C92.781 14.594 91.6976 16.2437 91.6976 18.8012C91.6976 21.329 92.7751 23.0083 94.4709 23.0083C96.1609 23.0024 97.0676 21.3587 97.0676 18.8012ZM103.374 18.8605C103.374 13.9175 106.612 10.4818 111.311 10.4818C113.643 10.4818 115.457 11.2176 116.829 12.5409C118.636 14.3033 119.455 17.0685 119.396 20.3321H108.862C109.097 22.3022 110.028 23.305 111.694 23.305C112.66 23.305 113.502 22.8659 113.855 21.8038H119.166C118.236 25.4175 115.463 27.2452 111.523 27.2452C106.642 27.2392 103.374 23.9162 103.374 18.8605ZM108.862 17.2109H113.879C113.79 15.3002 112.742 14.2973 111.429 14.2973C109.91 14.2973 109.062 15.3892 108.862 17.2109Z" fill="#A09DA2"/>
</g>
<defs>
<clipPath id="clip0_0_603">
<rect width="147" height="33" fill="white" transform="translate(0 0.5)"/>
</clipPath>
</defs>
</svg>
