<svg width="24" height="24" viewBox="0 0 24 24" fill="none" xmlns="http://www.w3.org/2000/svg">
<path d="M8 21.4357H6C4.11438 21.4357 3.17157 21.4357 2.58579 20.865C2 20.2942 2 19.3756 2 17.5383V15.5896C2 13.7523 2 12.8337 2.58579 12.2629C3.17157 11.6921 4.11438 11.6921 6 11.6921H8C9.88562 11.6921 10.8284 11.6921 11.4142 12.2629C12 12.8337 12 13.7523 12 15.5896V17.5383C12 19.3756 12 20.2942 11.4142 20.865C10.8284 21.4357 9.88562 21.4357 8 21.4357Z" stroke="white" stroke-width="1.5" stroke-linecap="round" stroke-linejoin="round"/>
<path d="M6 14.6152L8 14.6152" stroke="white" stroke-width="1.5" stroke-linecap="round" stroke-linejoin="round"/>
<path d="M18 1.94873C15.7909 1.94873 14 3.71126 14 5.88546C14 7.12867 14.5 8.09531 15.5 8.95875C16.2049 9.56735 17.0588 10.5782 17.5714 11.3976C17.8173 11.7906 18.165 11.7906 18.4286 11.3976C18.9672 10.5945 19.7951 9.56735 20.5 8.95875C21.5 8.09531 22 7.12867 22 5.88546C22 3.71126 20.2091 1.94873 18 1.94873Z" stroke="white" stroke-width="1.5" stroke-linejoin="round"/>
<path d="M18 14.6152V17.5383C18 19.3756 18 20.2942 17.5314 20.865C17.0839 21.4099 16.3761 21.4346 15 21.4357" stroke="white" stroke-width="1.5" stroke-linecap="round" stroke-linejoin="round"/>
<path d="M18.0078 5.84595L17.9986 5.84595" stroke="white" stroke-width="1.5" stroke-linecap="round" stroke-linejoin="round"/>
</svg>
